# xmcd
#
# Track frame offsets:
#	150
#	16720
#	37432
#	48765
#	77632
#	94662
#	128379
#	157900
#	174632
#	188120
#	200872
#	223752
#	245082
#	265105
#	291732
#	315587
#
# Disc length: 4519 seconds
#
# Revision: 0
# Processed by: cddbd v1.5.1PL2 Copyright (c) Steve Scherf et al.
# Submitted via: EasyCDDAExtractor 9.0.0.1
#
DISCID=e411a510
DTITLE=Various Artist - TEXAS BLUES
DYEAR=1998
DGENRE=Blues
TTITLE0=Stevie Ray VAUGHAN - Pride and joy - 1983
TTITLE1=FABULOUS THUNDERBIRDS - Powerful stuff - 1989
TTITLE2=Omar and The HOWLERS - Shake for me
TTITLE3=LIGHTNIN' HOPKINS - Katie Mae - 1992
TTITLE4=T-BONE WALKER - T-Bone blues - 1959
TTITLE5=Calvin RUSSELL - Crossroads - 1991
TTITLE6=Johnny COPELAND - Rolling with the punches - 1993
TTITLE7=Clarence 'GATEMOUTH' BROWN and Eric CLAPTON - Blues power - 1996
TTITLE8=BLIND LEMON JEFFERSON - Matchbox blues - 1927
TTITLE9=Willie MAE 'BIG MAMA' THORNTON - Hound dog - 1953
TTITLE10=Johnny WINTER - Come on in my kitchen - 1973
TTITLE11=VAUGHAN BROTHERS - Hard to be - 1990
TTITLE12=Jimmy VAUGHAN - Two wings - 1994
TTITLE13=STORYVILLE - Bitter rain - 1996
TTITLE14=Ian MOORE - Nothing - 1993
TTITLE15=Albert COLLINS - Mr Collins, Mr Collins - 1991
EXTD=
EXTT0=
EXTT1=
EXTT2=
EXTT3=
EXTT4=
EXTT5=
EXTT6=
EXTT7=
EXTT8=
EXTT9=
EXTT10=
EXTT11=
EXTT12=
EXTT13=
EXTT14=
EXTT15=
PLAYORDER=
